<svg width="683" height="128" viewBox="0 0 683 128" fill="none" xmlns="http://www.w3.org/2000/svg">
<path d="M19.4832 52H26.7732L26.4492 25.108L29.0412 30.238L42.6492 52H50.2632V15.28H43.0272L43.2972 42.118L40.7592 37.096L27.1512 15.28H19.4832V52ZM83.5315 42.55H76.2415C75.3235 45.628 73.1095 47.14 69.8695 47.14C65.6575 47.14 63.2275 44.224 62.9035 38.932H83.3155V37.312C83.3155 27.97 78.0775 22.246 69.5995 22.246C61.1755 22.246 55.7755 27.754 55.7755 37.582C55.7755 47.032 61.1215 52.81 69.8695 52.81C76.7815 52.81 81.9655 49.246 83.5315 42.55ZM69.5995 27.916C73.2175 27.916 75.4315 30.292 76.0795 34.612H63.0655C63.7135 30.238 65.9275 27.916 69.5995 27.916ZM114.908 42.55H107.618C106.7 45.628 104.486 47.14 101.246 47.14C97.0344 47.14 94.6044 44.224 94.2804 38.932H114.692V37.312C114.692 27.97 109.454 22.246 100.976 22.246C92.5524 22.246 87.1524 27.754 87.1524 37.582C87.1524 47.032 92.4984 52.81 101.246 52.81C108.158 52.81 113.342 49.246 114.908 42.55ZM100.976 27.916C104.594 27.916 106.808 30.292 107.456 34.612H94.4424C95.0904 30.238 97.3044 27.916 100.976 27.916ZM130.733 52.81C133.919 52.81 136.511 51.352 138.347 48.706V52H145.259V13.12H138.347V26.188C136.565 23.596 133.919 22.246 130.733 22.246C123.281 22.246 118.529 27.754 118.529 37.582C118.529 47.032 123.173 52.81 130.733 52.81ZM131.975 47.086C127.925 47.086 125.657 43.684 125.657 37.582C125.657 31.372 127.871 27.97 131.975 27.97C136.025 27.97 138.347 31.426 138.347 37.582C138.347 43.738 136.133 47.086 131.975 47.086ZM168.657 32.56C169.089 29.806 170.871 27.97 174.165 27.97C177.999 27.97 179.781 29.968 179.781 33.694V34.396C174.921 34.45 171.195 34.774 167.361 36.07C162.933 37.528 160.719 40.498 160.719 44.44C160.719 50.002 164.769 52.81 170.439 52.81C173.895 52.81 177.459 51.406 179.835 48.058C179.889 49.624 180.051 51.028 180.429 52H187.611C187.071 50.488 186.747 48.49 186.747 44.926V33.694C186.747 26.998 182.643 22.246 174.597 22.246C167.307 22.246 162.609 26.134 161.691 32.56H168.657ZM167.685 44.062C167.685 41.146 169.953 38.824 179.781 38.662V39.904C179.781 44.224 176.487 47.68 172.221 47.68C169.413 47.68 167.685 46.276 167.685 44.062ZM203.727 19.816H210.639V13.12H203.727V19.816ZM210.639 54.916V23.056H203.727V54.322C203.727 57.346 202.863 58.966 199.191 58.966H198.759V64.042C199.407 64.366 200.541 64.744 202.161 64.744C207.723 64.744 210.639 61.45 210.639 54.916ZM229.491 52.81C237.861 52.81 243.315 47.302 243.315 37.582C243.315 28.078 238.023 22.246 229.491 22.246C221.067 22.246 215.613 27.754 215.613 37.582C215.613 47.032 220.905 52.81 229.491 52.81ZM229.491 47.086C225.117 47.086 222.741 43.684 222.741 37.582C222.741 31.372 225.063 27.97 229.491 27.97C233.811 27.97 236.187 31.426 236.187 37.582C236.187 43.738 233.865 47.086 229.491 47.086ZM255.252 52V48.922C257.034 51.46 259.68 52.81 262.866 52.81C270.264 52.81 275.016 47.302 275.016 37.474C275.016 28.024 270.372 22.246 262.866 22.246C259.68 22.246 257.088 23.704 255.252 26.296V13.12H248.34V52H255.252ZM261.624 27.97C265.674 27.97 267.942 31.372 267.942 37.474C267.942 43.684 265.728 47.086 261.624 47.086C257.52 47.086 255.252 43.63 255.252 37.474C255.252 31.318 257.466 27.97 261.624 27.97ZM301.276 52.81C304.462 52.81 307.054 51.352 308.89 48.706V52H315.802V13.12H308.89V26.188C307.108 23.596 304.462 22.246 301.276 22.246C293.824 22.246 289.072 27.754 289.072 37.582C289.072 47.032 293.716 52.81 301.276 52.81ZM302.518 47.086C298.468 47.086 296.2 43.684 296.2 37.582C296.2 31.372 298.414 27.97 302.518 27.97C306.568 27.97 308.89 31.426 308.89 37.582C308.89 43.738 306.676 47.086 302.518 47.086ZM334.644 52.81C343.014 52.81 348.468 47.302 348.468 37.582C348.468 28.078 343.176 22.246 334.644 22.246C326.22 22.246 320.766 27.754 320.766 37.582C320.766 47.032 326.058 52.81 334.644 52.81ZM334.644 47.086C330.27 47.086 327.894 43.684 327.894 37.582C327.894 31.372 330.216 27.97 334.644 27.97C338.964 27.97 341.34 31.426 341.34 37.582C341.34 43.738 339.018 47.086 334.644 47.086ZM353.493 52H360.405V35.206C360.405 31.318 362.781 27.97 366.615 27.97C370.125 27.97 371.799 30.184 371.799 34.126V52H378.711V32.722C378.711 25.702 374.769 22.246 368.991 22.246C365.319 22.246 362.295 23.812 360.405 26.944V23.056H353.493V52ZM411.487 42.55H404.197C403.279 45.628 401.065 47.14 397.825 47.14C393.613 47.14 391.183 44.224 390.859 38.932H411.271V37.312C411.271 27.97 406.033 22.246 397.555 22.246C389.131 22.246 383.731 27.754 383.731 37.582C383.731 47.032 389.077 52.81 397.825 52.81C404.737 52.81 409.921 49.246 411.487 42.55ZM397.555 27.916C401.173 27.916 403.387 30.292 404.035 34.612H391.021C391.669 30.238 393.883 27.916 397.555 27.916ZM415.236 52H418.206C418.206 55.348 417.234 57.994 415.83 61.234H419.556C421.878 57.238 422.85 53.89 422.85 48.49V44.386H415.236V52ZM445.935 32.56C446.367 29.806 448.149 27.97 451.443 27.97C455.277 27.97 457.059 29.968 457.059 33.694V34.396C452.199 34.45 448.473 34.774 444.639 36.07C440.211 37.528 437.997 40.498 437.997 44.44C437.997 50.002 442.047 52.81 447.717 52.81C451.173 52.81 454.737 51.406 457.113 48.058C457.167 49.624 457.329 51.028 457.707 52H464.889C464.349 50.488 464.025 48.49 464.025 44.926V33.694C464.025 26.998 459.921 22.246 451.875 22.246C444.585 22.246 439.887 26.134 438.969 32.56H445.935ZM444.963 44.062C444.963 41.146 447.231 38.824 457.059 38.662V39.904C457.059 44.224 453.765 47.68 449.499 47.68C446.691 47.68 444.963 46.276 444.963 44.062ZM470.616 52H477.528V35.206C477.528 31.318 479.904 27.97 483.738 27.97C487.248 27.97 488.922 30.184 488.922 34.126V52H495.834V32.722C495.834 25.702 491.892 22.246 486.114 22.246C482.442 22.246 479.418 23.812 477.528 26.944V23.056H470.616V52ZM513.058 52.81C516.244 52.81 518.836 51.352 520.672 48.706V52H527.584V13.12H520.672V26.188C518.89 23.596 516.244 22.246 513.058 22.246C505.606 22.246 500.854 27.754 500.854 37.582C500.854 47.032 505.498 52.81 513.058 52.81ZM514.3 47.086C510.25 47.086 507.982 43.684 507.982 37.582C507.982 31.372 510.196 27.97 514.3 27.97C518.35 27.97 520.672 31.426 520.672 37.582C520.672 43.738 518.458 47.086 514.3 47.086ZM555.14 52.81C558.326 52.81 560.918 51.352 562.754 48.706V52H569.666V13.12H562.754V26.188C560.972 23.596 558.326 22.246 555.14 22.246C547.688 22.246 542.936 27.754 542.936 37.582C542.936 47.032 547.58 52.81 555.14 52.81ZM556.382 47.086C552.332 47.086 550.064 43.684 550.064 37.582C550.064 31.372 552.278 27.97 556.382 27.97C560.432 27.97 562.754 31.426 562.754 37.582C562.754 43.738 560.54 47.086 556.382 47.086ZM588.507 52.81C596.877 52.81 602.331 47.302 602.331 37.582C602.331 28.078 597.039 22.246 588.507 22.246C580.083 22.246 574.629 27.754 574.629 37.582C574.629 47.032 579.921 52.81 588.507 52.81ZM588.507 47.086C584.133 47.086 581.757 43.684 581.757 37.582C581.757 31.372 584.079 27.97 588.507 27.97C592.827 27.97 595.203 31.426 595.203 37.582C595.203 43.738 592.881 47.086 588.507 47.086ZM607.356 52H614.268V35.206C614.268 31.318 616.644 27.97 620.478 27.97C623.988 27.97 625.662 30.184 625.662 34.126V52H632.574V32.722C632.574 25.702 628.632 22.246 622.854 22.246C619.182 22.246 616.158 23.812 614.268 26.944V23.056H607.356V52ZM665.35 42.55H658.06C657.142 45.628 654.928 47.14 651.688 47.14C647.476 47.14 645.046 44.224 644.722 38.932H665.134V37.312C665.134 27.97 659.896 22.246 651.418 22.246C642.994 22.246 637.594 27.754 637.594 37.582C637.594 47.032 642.94 52.81 651.688 52.81C658.6 52.81 663.784 49.246 665.35 42.55ZM651.418 27.916C655.036 27.916 657.25 30.292 657.898 34.612H644.884C645.532 30.238 647.746 27.916 651.418 27.916ZM159.476 116H168.116L176.216 87.056H169.142L164.444 107.468L163.796 110.87L163.094 107.468L157.532 87.056H150.35L144.788 107.468L143.978 110.978L143.276 107.468L138.632 87.056H131.234L139.28 116H147.866L153.05 96.614L153.698 93.212L154.238 96.614L159.476 116ZM206.165 106.55H198.875C197.957 109.628 195.743 111.14 192.503 111.14C188.291 111.14 185.861 108.224 185.537 102.932H205.949V101.312C205.949 91.97 200.711 86.246 192.233 86.246C183.809 86.246 178.409 91.754 178.409 101.582C178.409 111.032 183.755 116.81 192.503 116.81C199.415 116.81 204.599 113.246 206.165 106.55ZM192.233 91.916C195.851 91.916 198.065 94.292 198.713 98.612H185.699C186.347 94.238 188.561 91.916 192.233 91.916ZM211.136 116H218.048V77.12H211.136V116ZM224.373 116H231.285V77.12H224.373V116ZM261.045 88.838C261.045 83.222 256.941 78.47 249.003 78.47C241.497 78.47 236.799 82.844 235.881 89.864H242.793C243.279 86.03 245.223 84.032 248.949 84.032C252.297 84.032 254.133 85.922 254.133 88.838C254.133 95.102 243.765 94.292 243.765 105.902H250.731C250.731 96.884 261.045 98.018 261.045 88.838ZM243.441 116H251.055V109.25H243.441V116ZM309.134 116V96.56H294.284V102.068H302.222C301.736 108.17 298.064 110.762 293.528 110.762C287.264 110.762 283.538 105.902 283.538 97.694C283.538 89.486 287.102 84.518 293.258 84.518C297.362 84.518 300.44 86.678 301.574 90.62H309.188C307.514 82.628 301.088 78.47 293.474 78.47C282.728 78.47 276.086 85.868 276.086 97.694C276.086 109.574 282.728 116.81 292.826 116.81C297.362 116.81 301.196 115.082 303.464 111.356L304.058 116H309.134ZM341.693 106.55H334.403C333.485 109.628 331.271 111.14 328.031 111.14C323.819 111.14 321.389 108.224 321.065 102.932H341.477V101.312C341.477 91.97 336.239 86.246 327.761 86.246C319.337 86.246 313.937 91.754 313.937 101.582C313.937 111.032 319.283 116.81 328.031 116.81C334.943 116.81 340.127 113.246 341.693 106.55ZM327.761 91.916C331.379 91.916 333.593 94.292 334.241 98.612H321.227C321.875 94.238 324.089 91.916 327.761 91.916ZM347.582 106.982C347.582 113.462 350.39 116.81 356.276 116.81C358.166 116.81 359.732 116.486 360.488 116.108V111.032H359.192C355.358 111.032 354.494 109.412 354.494 106.388V92.402H360.596V87.056H354.494V80.414H347.582V87.056H343.856V92.402H347.582V106.982ZM380.813 94.832C380.813 92.996 382.433 91.646 385.187 91.646C388.481 91.646 390.533 93.05 391.073 96.56H397.985C397.121 89.378 392.099 86.246 385.457 86.246C377.897 86.246 374.225 90.566 374.225 95.264C374.225 106.982 392.099 101.42 392.099 107.9C392.099 110.006 390.317 111.464 386.915 111.464C383.297 111.464 380.813 109.682 380.327 106.55H373.415C374.441 113.516 379.571 116.81 386.699 116.81C393.935 116.81 399.065 113.03 399.065 107.468C399.065 95.858 380.813 101.474 380.813 94.832ZM404.693 106.982C404.693 113.462 407.501 116.81 413.387 116.81C415.277 116.81 416.843 116.486 417.599 116.108V111.032H416.303C412.469 111.032 411.605 109.412 411.605 106.388V92.402H417.707V87.056H411.605V80.414H404.693V87.056H400.967V92.402H404.693V106.982ZM428.453 96.56C428.885 93.806 430.667 91.97 433.961 91.97C437.795 91.97 439.577 93.968 439.577 97.694V98.396C434.717 98.45 430.991 98.774 427.157 100.07C422.729 101.528 420.515 104.498 420.515 108.44C420.515 114.002 424.565 116.81 430.235 116.81C433.691 116.81 437.255 115.406 439.631 112.058C439.685 113.624 439.847 115.028 440.225 116H447.407C446.867 114.488 446.543 112.49 446.543 108.926V97.694C446.543 90.998 442.439 86.246 434.393 86.246C427.103 86.246 422.405 90.134 421.487 96.56H428.453ZM427.481 108.062C427.481 105.146 429.749 102.824 439.577 102.662V103.904C439.577 108.224 436.283 111.68 432.017 111.68C429.209 111.68 427.481 110.276 427.481 108.062ZM453.134 116H460.046V100.61C460.046 95.804 462.368 92.672 467.606 92.672C468.848 92.672 469.874 92.78 470.792 93.05V87.056C470.252 86.57 469.172 86.246 467.984 86.246C464.852 86.246 461.936 87.812 460.046 91.268V87.056H453.134V116ZM475.357 106.982C475.357 113.462 478.165 116.81 484.051 116.81C485.941 116.81 487.507 116.486 488.263 116.108V111.032H486.967C483.133 111.032 482.269 109.412 482.269 106.388V92.402H488.371V87.056H482.269V80.414H475.357V87.056H471.631V92.402H475.357V106.982ZM518.827 106.55H511.537C510.619 109.628 508.405 111.14 505.165 111.14C500.953 111.14 498.523 108.224 498.199 102.932H518.611V101.312C518.611 91.97 513.373 86.246 504.895 86.246C496.471 86.246 491.071 91.754 491.071 101.582C491.071 111.032 496.417 116.81 505.165 116.81C512.077 116.81 517.261 113.246 518.827 106.55ZM504.895 91.916C508.513 91.916 510.727 94.292 511.375 98.612H498.361C499.009 94.238 501.223 91.916 504.895 91.916ZM534.652 116.81C537.838 116.81 540.43 115.352 542.266 112.706V116H549.178V77.12H542.266V90.188C540.484 87.596 537.838 86.246 534.652 86.246C527.2 86.246 522.448 91.754 522.448 101.582C522.448 111.032 527.092 116.81 534.652 116.81ZM535.894 111.086C531.844 111.086 529.576 107.684 529.576 101.582C529.576 95.372 531.79 91.97 535.894 91.97C539.944 91.97 542.266 95.426 542.266 101.582C542.266 107.738 540.052 111.086 535.894 111.086Z" fill="white"/>
</svg>
