<svg width="148" height="11" viewBox="0 0 148 11" fill="none" xmlns="http://www.w3.org/2000/svg">
<path opacity="0.4" d="M0.938 10H7.238V8.474H2.828V0.48H0.938V10ZM8.55323 10H10.4432V0.48H8.55323V10ZM12.313 10H14.203L14.119 3.028L14.791 4.358L18.319 10H20.293V0.48H18.417L18.487 7.438L17.829 6.136L14.301 0.48H12.313V10ZM22.1841 10H24.0741V5.59L27.8961 10H30.2901L26.0761 5.142L30.1081 0.48H27.8961L24.0741 5.002V0.48H22.1841V10ZM32.8582 2.874C32.8582 2.216 33.4322 1.782 34.3842 1.782C35.4062 1.782 36.0642 2.272 36.2882 3.336H38.2902C37.9822 1.194 36.3582 0.269999 34.4402 0.269999C32.1862 0.269999 30.9402 1.53 30.9402 3.042C30.9402 6.836 36.6242 5.016 36.6242 7.438C36.6242 8.208 36.0222 8.698 34.8462 8.698C33.6982 8.698 32.9702 8.138 32.7322 7.13H30.7582C31.1222 9.202 32.6622 10.21 34.8322 10.21C36.9882 10.21 38.5562 9.118 38.5562 7.2C38.5562 3.308 32.8582 5.156 32.8582 2.874ZM48.8357 10H50.8237L47.2397 0.48H45.0137L41.4297 10H43.3197L44.0477 8.026H48.1077L48.8357 10ZM45.7977 3.308L46.0777 2.328L46.3577 3.308L47.5617 6.57H44.5937L45.7977 3.308ZM51.9341 10H53.8241L53.7401 3.028L54.4121 4.358L57.9401 10H59.9141V0.48H58.0381L58.1081 7.438L57.4501 6.136L53.9221 0.48H51.9341V10ZM61.8052 10H65.2632C68.2452 10 70.1072 8.222 70.1072 5.254C70.1072 2.286 68.2452 0.48 65.2632 0.48H61.8052V10ZM65.2632 8.474H63.6952V2.006H65.2632C67.0972 2.006 68.1892 3.21 68.1892 5.254C68.1892 7.284 67.0972 8.474 65.2632 8.474ZM74.3696 10H76.2596V6.304H77.9396C78.8776 6.304 79.2416 6.5 79.4656 7.48L80.0256 10H81.9856L81.2716 7.13C81.0756 6.346 80.7816 5.842 80.2916 5.534C81.1036 5.1 81.5656 4.358 81.5656 3.294C81.5656 1.558 80.2356 0.48 78.0936 0.48H74.3696V10ZM78.0516 1.978C79.0596 1.978 79.6336 2.538 79.6336 3.392C79.6336 4.26 79.0736 4.82 78.0096 4.82H76.2596V1.978H78.0516ZM83.2974 10H89.9894V8.502H85.1874V5.842H89.4574V4.358H85.1874V1.978H89.9894V0.48H83.2974V10ZM91.5005 10H94.9585C97.9405 10 99.8025 8.222 99.8025 5.254C99.8025 2.286 97.9405 0.48 94.9585 0.48H91.5005V10ZM94.9585 8.474H93.3905V2.006H94.9585C96.7925 2.006 97.8845 3.21 97.8845 5.254C97.8845 7.284 96.7925 8.474 94.9585 8.474ZM101.372 10H103.262V0.48H101.372V10ZM105.131 10H107.021V6.304H108.701C109.639 6.304 110.003 6.5 110.227 7.48L110.787 10H112.747L112.033 7.13C111.837 6.346 111.543 5.842 111.053 5.534C111.865 5.1 112.327 4.358 112.327 3.294C112.327 1.558 110.997 0.48 108.855 0.48H105.131V10ZM108.813 1.978C109.821 1.978 110.395 2.538 110.395 3.392C110.395 4.26 109.835 4.82 108.771 4.82H107.021V1.978H108.813ZM114.059 10H120.751V8.502H115.949V5.842H120.219V4.358H115.949V1.978H120.751V0.48H114.059V10ZM130.522 3.42C130.088 1.348 128.422 0.269999 126.448 0.269999C123.662 0.269999 121.94 2.188 121.94 5.254C121.94 8.334 123.634 10.21 126.42 10.21C128.366 10.21 130.004 9.118 130.508 7.13H128.52C128.198 8.124 127.4 8.642 126.392 8.642C124.782 8.642 123.872 7.382 123.872 5.254C123.872 3.14 124.796 1.838 126.392 1.838C127.456 1.838 128.254 2.384 128.548 3.42H130.522ZM134.229 10H136.119V2.034H139.185V0.48H131.163V2.034H134.229V10ZM141.987 2.874C141.987 2.216 142.561 1.782 143.513 1.782C144.535 1.782 145.193 2.272 145.417 3.336H147.419C147.111 1.194 145.487 0.269999 143.569 0.269999C141.315 0.269999 140.069 1.53 140.069 3.042C140.069 6.836 145.753 5.016 145.753 7.438C145.753 8.208 145.151 8.698 143.975 8.698C142.827 8.698 142.099 8.138 141.861 7.13H139.887C140.251 9.202 141.791 10.21 143.961 10.21C146.117 10.21 147.685 9.118 147.685 7.2C147.685 3.308 141.987 5.156 141.987 2.874Z" fill="#DCDCDC"/>
</svg>
